inDegrees=no
num_controls=7
num_derivatives=13
num_iterations=123
num_multipliers=7
num_parameters=0
num_slacks=7
num_states=26
objective=5.043311
objective_accelerations=0.349442
objective_balance=0.027820
objective_effort=0.170057
objective_height=4.429648
objective_ligament=0.066343
solver_duration=1371.934930
status=Solve_Succeeded
success=true
DataType=double
version=3
OpenSimVersion=4.4-2022-07-23-0e9fedc
endheader
time	/jointset/ground_pelvis/pelvis_tilt/value	/jointset/ground_pelvis/pelvis_tx/value	/jointset/ground_pelvis/pelvis_ty/value	/jointset/hip_l/hip_flexion_l/value	/jointset/hip_l/hip_adduction_l/value	/jointset/hip_l/hip_rotation_l/value	/jointset/back/lumbar_extension/value	/jointset/patellofemoral_l/patellar_flexion_l/value	/jointset/knee_l/knee_flexion_l/value	/jointset/knee_l/knee_adduction_l/value	/jointset/knee_l/knee_rotation_l/value	/jointset/ankle_l/ankle_angle_l/value	/jointset/subtalar_l/subtalar_angle_l/value	/jointset/ground_pelvis/pelvis_tilt/speed	/jointset/ground_pelvis/pelvis_tx/speed	/jointset/ground_pelvis/pelvis_ty/speed	/jointset/hip_l/hip_flexion_l/speed	/jointset/hip_l/hip_adduction_l/speed	/jointset/hip_l/hip_rotation_l/speed	/jointset/back/lumbar_extension/speed	/jointset/patellofemoral_l/patellar_flexion_l/speed	/jointset/knee_l/knee_flexion_l/speed	/jointset/knee_l/knee_adduction_l/speed	/jointset/knee_l/knee_rotation_l/speed	/jointset/ankle_l/ankle_angle_l/speed	/jointset/subtalar_l/subtalar_angle_l/speed	/forceset/tau_hip_flexion_l	/forceset/tau_hip_adduction_l	/forceset/tau_hip_rotation_l	/forceset/tau_knee_flexion_l	/forceset/tau_ankle_angle_l	/forceset/tau_subtalar_angle_l	/forceset/tau_lumbar_extension	lambda_cid13_p0	lambda_cid13_p1	lambda_cid13_p2	lambda_cid13_p3	lambda_cid13_p4	lambda_cid13_p5	lambda_cid14_p0	/jointset/ground_pelvis/pelvis_tilt/accel	/jointset/ground_pelvis/pelvis_tx/accel	/jointset/ground_pelvis/pelvis_ty/accel	/jointset/hip_l/hip_flexion_l/accel	/jointset/hip_l/hip_adduction_l/accel	/jointset/hip_l/hip_rotation_l/accel	/jointset/back/lumbar_extension/accel	/jointset/patellofemoral_l/patellar_flexion_l/accel	/jointset/knee_l/knee_flexion_l/accel	/jointset/knee_l/knee_adduction_l/accel	/jointset/knee_l/knee_rotation_l/accel	/jointset/ankle_l/ankle_angle_l/accel	/jointset/subtalar_l/subtalar_angle_l/accel	gamma_cid13_p0	gamma_cid13_p1	gamma_cid13_p2	gamma_cid13_p3	gamma_cid13_p4	gamma_cid13_p5	gamma_cid14_p0
0.5	-0.1177366250341352	0.0683555534303724	0.8237596307120308	0.6096493635524591	-0.4404784412440446	-0.3004203657677939	-0.2427409962601067	0.667845780738753	0.6678457807386857	-0.1602291053336864	-0.1720878282598829	0.2119426095196169	0.02450124879289014	-0.1940913357415921	0.01374828212182209	-0.2861359947607883	1.156324135253455	-0.2554463914948682	0.6605796923947344	-0.1656860593316078	1.606704950451146	1.606704950451145	0.01827034951085064	-0.02065336703758333	0.7615201940745058	0.1339525901260408	-0.06559095956497844	0.03476108864936672	-0.01302191310570402	-0.2209719737859231	-0.01446433843927854	0.0223542341483691	0.098087320239211	-38.02762822086326	-8.097515291815956	6.72043125725276	3.743288569004398	-533.1372046652789	-67.55073106034584	-32.00396969322924	0.07658574077011829	0.1294817540771303	-0.2788975418649763	-0.5484599276816017	0.5311912658596393	-0.1523457787585446	0.7622693087274952	-1.10969036125513	-1.109690361255107	-0.1223249068432532	0.09613351005199812	-0.4560409222765045	0.4458721464269035	-6.507794982379179e-08	-8.106316308071715e-07	7.309058514203514e-08	-1.663223598120558e-07	-9.67757927022237e-09	-4.066090798840806e-07	-8.64298276699017e-08
0.51	-0.1196735852853018	0.06849948847187312	0.8208848878427233	0.6211834773817606	-0.4430064198463719	-0.2938240688009998	-0.2443595697858685	0.6838552348748338	0.6838552348748235	-0.1600526019639807	-0.1722906143279407	0.2195338807093154	0.02586246135049444	-0.1932858215355667	0.01503576367225795	-0.2887523969222722	1.150336553282747	-0.250131605313519	0.6585800951449414	-0.1580164061042528	1.594967533287049	1.594967533287015	0.01703813438239039	-0.01990282726269033	0.7566313968026371	0.1382663697075807	-0.06765708873618637	0.03648776849864665	-0.01295128441408394	-0.2234076573570642	-0.01763300356648857	0.02262500262544917	0.09987158537455469	-39.10868413435679	-7.980888551797777	6.650509269731582	4.13984874780579	-534.9192310280993	-67.41798617188003	-31.28440855861129	0.08478230071388937	0.1279050436757662	-0.2439871144987288	-0.6482030851561141	0.5343442907035578	-0.2387781374276488	0.7711492877440393	-1.238501473210555	-1.238501473215461	-0.1226106884873447	0.064684572880833	-0.5207261031622374	0.4207119597370302	-8.192793909526152e-08	-7.626782990195348e-07	1.406850497714653e-07	-1.491560792891297e-07	-3.197336036382077e-08	-4.225227980684208e-07	-9.080680737834944e-08
0.52	-0.1216020407863969	0.06865620306650717	0.8179857858395595	0.6326528562406218	-0.4454807061876039	-0.2872507700945616	-0.2459010795877704	0.6997407680234891	0.6997407680234529	-0.1598882089201945	-0.1724858609257544	0.2270731785315899	0.02726612792305743	-0.1923903857216777	0.0163041927484884	-0.2910078215320537	1.143377141176403	-0.244707939274921	0.6559800403216456	-0.1502733145566575	1.58192075295401	1.581920752953943	0.01584828434833791	-0.01914547302087756	0.7511255205899572	0.1424433931179038	-0.06972321790775986	0.03821444834789443	-0.01288065572348529	-0.2258433409281592	-0.02080166869369745	0.02289577110250346	0.1016558505095843	-40.19573174109084	-7.863243721000591	6.580460956574093	4.533342563462399	-536.8010303316787	-67.31301425118981	-30.55956263329214	0.0945700623432056	0.1256712592357592	-0.2067020315245049	-0.742825954809032	0.5529672373094323	-0.2724372934590555	0.7769569727756456	-1.3715629950432	-1.371562995043196	-0.1138518879615848	0.09749640343599353	-0.5794567104390509	0.4185209121834241	-1.053378904673756e-07	-7.160764133352919e-07	2.318756617295968e-07	-1.279022370358885e-07	-6.739864639891614e-08	-4.501366276603843e-07	-9.806387483870717e-08
0.53	-0.1235209038730263	0.06882548653261164	0.8150660078450372	0.6440474981212677	-0.4479002847363029	-0.280706115372315	-0.2473650338064439	0.7154891515488597	0.7154891515488426	-0.159735817952298	-0.1726732033222415	0.2345542757534545	0.02871073307791477	-0.1913667833984087	0.01754717834055454	-0.2928839993009145	1.13539147117876	-0.239193798579785	0.6528530882927537	-0.1425077401614207	1.567542389469865	1.56754238946981	0.01463736804268094	-0.018320434919715	0.7449921611759774	0.1464487669376831	-0.07180650285962216	0.04010669778177747	-0.01281887729511375	-0.2281997715211825	-0.02400510833850963	0.02301204532594943	0.1034439814608849	-41.30131237807282	-7.663456284251482	6.483836983954424	4.981207838778285	-538.7094180579347	-67.04732782006937	-29.83787431432098	0.1085788372620497	0.1227905409924414	-0.1685261400712621	-0.8503956435702189	0.5527584438629168	-0.3475811806743279	0.7778260257710033	-1.502987047429015	-1.502987047427131	-0.1236797116207672	0.07544161687146125	-0.6455702594149145	0.3872928687903171	-1.134693685261008e-07	-6.625531047315793e-07	2.72171034965453e-07	-1.126901779851958e-07	-7.988090833401099e-08	-4.469603609301141e-07	-9.840834714497605e-08
0.54	-0.1254290662324608	0.06900703552099616	0.8121293779747261	0.6553574916776377	-0.450264297686405	-0.2741956815749669	-0.2487510386105986	0.7310873486349432	0.7310873486349241	-0.1595953297894405	-0.17285220851697	0.2419709804406698	0.03019454142135209	-0.1902502402773389	0.01875729720450204	-0.2943781966898701	1.126447476327992	-0.2335948195547475	0.6491358553410667	-0.1346834316511939	1.551883465092568	1.551883465092525	0.0134677233469018	-0.01747803268194036	0.7382470136604947	0.1502840308340701	-0.07388978781165226	0.04199894721561909	-0.01275709886712661	-0.2305562021141987	-0.02720854798333282	0.02312831954933993	0.1052321124120535	-42.40937812075411	-7.462520942036979	6.386216440206373	5.419179499009641	-540.6621109676613	-66.80198560258815	-29.12352560782006	0.1131582219036923	0.1190979136117813	-0.1303059555435005	-0.9344909254341763	0.5699349032897494	-0.3904934780179778	0.788703795773728	-1.627675173673229	-1.627675173673235	-0.1055975659859169	0.1009692307584563	-0.7018143307398923	0.384498927504889	-1.046970037700126e-07	-6.013720516212198e-07	2.561567823809189e-07	-1.041626450309401e-07	-6.697939892442412e-08	-4.097184557156698e-07	-9.110484183395501e-08
0.55	-0.12732565431731	0.069200515668221	0.8091797286738625	0.6665733958297887	-0.4525719255144692	-0.2677252141869355	-0.2500585397136138	0.7465226952990799	0.7465226952990308	-0.1594663161464115	-0.1730225809626352	0.2493172600599383	0.03171584856254444	-0.1890488476804838	0.01993315158265108	-0.2954851003084952	1.116571070837789	-0.2279228790060251	0.6448631752491826	-0.1268199344801709	1.534979118182679	1.534979118182633	0.01233656019156161	-0.0165938087361174	0.7309112749424226	0.1539416407082801	-0.07582496776266352	0.04360208533770834	-0.01272294516314925	-0.2331209814353036	-0.03018424898728373	0.02328607233089166	0.1068963036872762	-43.44437755774688	-7.295402174326674	6.297423663395735	5.810593418361615	-542.6170896128281	-66.65979142532687	-28.41604825998956	0.1264129939333462	0.1159721983929205	-0.09091007735776011	-1.038553664438181	0.5670203133622826	-0.4598939210101008	0.7847008489945125	-1.752809458135186	-1.752809458135607	-0.1167134319260654	0.08258745966436662	-0.7641243652486073	0.3510904277981085	-9.4048638215955e-08	-5.40063525397223e-07	2.322630149683683e-07	-9.593747487973152e-08	-5.306506437079404e-08	-3.684203317965734e-07	-8.270181607386022e-08
0.5600000000000001	-0.1292096718331465	0.06940558295892199	0.8062210048343458	0.6776856682662435	-0.4548225946005149	-0.261300321329062	-0.2512875002106913	0.7617827994924347	0.7617827994923406	-0.1593485816832298	-0.1731840234721952	0.2565872481474412	0.03327267148456161	-0.1877361264692859	0.02107472589973127	-0.2961931044205094	1.105721133202604	-0.2222030711493294	0.6400209493078405	-0.1189753104599743	1.516834970933249	1.5168349709332	0.01121188737149522	-0.01569204546347615	0.7229887073080372	0.1573871869992545	-0.07776014771419716	0.04520522345972371	-0.0126887914592328	-0.2356857607564967	-0.03315994999125538	0.02344382511233253	0.1085604949620646	-44.48322733806937	-7.127409227293697	6.20826362361005	6.195729501005495	-544.6350632966562	-66.54028136062125	-27.71524285179254	0.1354239447725274	0.1122419013977991	-0.05052605422137679	-1.129197354430178	0.5795083648844632	-0.5044026479094852	0.7849291656084841	-1.875635241581346	-1.875635241581315	-0.1042994989310693	0.1044770961221692	-0.8191801140027614	0.3420862108576657	-8.114907170433423e-08	-4.786020314368618e-07	1.989138297621985e-07	-8.807514009217953e-08	-3.793533964431217e-08	-3.222547454318948e-07	-7.297936577487696e-08
0.5700000000000001	-0.1310800753772214	0.0696218583227998	0.8032571786736461	0.6886848629747104	-0.457015829720243	-0.25492659272366	-0.2524381515245972	0.7768555301741982	0.7768555301741743	-0.1592419149370455	-0.1733362904775709	0.2637751817470188	0.03486292846727947	-0.1863251617525522	0.0221714540774384	-0.2965059412467493	1.093968267936781	-0.2164411814235795	0.6346329571434844	-0.1111710451784826	1.497523400575406	1.497523400575383	0.01012504411412294	-0.01476213234065448	0.7145058499652954	0.1606231273092706	-0.07958849286506113	0.04673308034891367	-0.01266345449078455	-0.2382545525075124	-0.03605274708341278	0.02354275227391272	0.1101130506751314	-45.4927028157159	-6.933857776907256	6.109141480885943	6.597920443177923	-546.5492407327278	-66.38474272611906	-27.0211197260962	0.1468485936484366	0.1070376301546383	-0.01174040139103997	-1.220758849988546	0.5749590448503823	-0.5698243101589419	0.7757612811826978	-1.987069163420444	-1.987069163416498	-0.1103960395770242	0.08716058945042152	-0.8766828851273327	0.3082354909959573	-6.948224153732352e-08	-4.197353333190822e-07	1.696000552971139e-07	-7.998427965355677e-08	-2.545062565283138e-08	-2.791710286908961e-07	-6.396143254654014e-08
0.58	-0.1329357861024504	0.06984883083929365	0.8002922085637715	0.699562043482998	-0.4591513599890357	-0.2486095094017922	-0.2535112429713485	0.7917295149062888	0.7917295149063218	-0.1591460204834828	-0.1734792759178935	0.2708755179050208	0.03648432236308061	-0.1847975626947615	0.02321415642293751	-0.2964218942555463	1.081318293177768	-0.2106621009605948	0.6286918926007152	-0.1034633370264078	1.477085780996174	1.477085780996177	0.009057428839270827	-0.01383573245429147	0.7054692189938523	0.1636145696161823	-0.08141683801632028	0.04826093723799885	-0.01263811752230661	-0.2408233442586072	-0.03894554417560589	0.02364167943532738	0.1116656063878933	-46.50728479642366	-6.738923357427658	6.00924097573341	6.998751378297913	-548.5419078099053	-66.25173580791466	-26.33389551358299	0.1587508129841893	0.1014367349560218	0.02885070926716659	-1.308619253068136	0.5829465123314839	-0.6150171235920285	0.76561773972516	-2.100845085859016	-2.100845085859071	-0.1004539024269542	0.1037744488305056	-0.9299348397432025	0.2931866102367474	-5.942083544701432e-08	-3.642479042055952e-07	1.455416994715825e-07	-7.15958044135396e-08	-1.641057680460778e-08	-2.401009095993415e-07	-5.586100992183598e-08
